<svg width="290" height="172" viewBox="0 0 290 172" fill="none" xmlns="http://www.w3.org/2000/svg">
<g filter="url(#filter0_d_244_221)">
<path d="M76.5246 57.0347C85.5555 57.0347 92.631 59.3399 97.7512 63.9503C100.566 66.496 101.974 69.5526 101.974 73.12C101.974 76.0308 101.025 79.2936 99.1279 82.9085C109.247 87.3505 114.308 93.2456 114.311 100.594C114.313 107.942 108.514 114.795 96.9152 121.152C90.2562 123.653 83.2043 124.948 76.0906 124.974C61.9135 123.979 53.6131 122.486 51.1894 120.498C49.055 118.772 47.9878 116.467 47.9878 113.582C47.9893 113.12 48.0262 112.659 48.0981 112.203C48.4609 108.661 50.1471 106.126 53.1566 104.597C53.0095 100.205 52.9372 96.1292 52.9396 92.3698C52.9396 73.5419 54.8202 62.9286 58.5815 60.5298C64.2652 58.1661 70.3689 56.9772 76.5246 57.0347ZM69.7195 100.338V107.996C70.8317 108.02 71.912 108.033 72.9602 108.036C81.6472 108.036 87.9697 106.871 91.9278 104.54C93.9674 103.327 94.986 102.142 94.9836 100.985C94.9836 99.6267 93.6365 98.317 90.9425 97.056C89.0751 96.2303 87.0505 95.8203 85.0088 95.8542C80.7875 95.8353 75.691 97.3298 69.7195 100.338ZM80.8219 78.5778C81.2525 77.9279 81.4984 77.1734 81.5333 76.3947C81.5222 75.5903 81.2246 74.8163 80.6938 74.2116C79.9183 73.2634 77.9642 72.7894 74.8313 72.7894C73.7404 72.7894 72.4906 72.8498 71.0819 72.9707C70.5708 76.0772 70.2666 79.2141 70.1713 82.3609C76.278 81.4365 79.8282 80.1754 80.8219 78.5778Z" fill="url(#paint0_linear_244_221)"/>
<path d="M129.01 59.1821H131.521C135.316 59.1821 137.731 61.7303 138.767 66.8266V68.0994C136.23 76.2085 134.96 81.8606 134.958 85.0559C134.668 86.0277 134.524 87.8707 134.524 90.5848C134.524 97.3782 136.077 100.775 139.184 100.775C143.573 100.775 147.687 97.9365 151.524 92.2594C155.188 87.1892 158.161 77.716 160.442 63.8399C162.264 60.9955 164.946 59.5732 168.489 59.5732C173.877 59.5732 176.571 64.1101 176.571 73.1839C176.571 75.8743 177.421 88.743 179.122 111.79C177.462 116.035 174.912 118.158 171.473 118.158H170.2C166.681 118.158 164.132 115.89 162.555 111.353C162.555 108.807 162.131 107.534 161.282 107.534C153.456 114.325 146.38 117.721 140.055 117.721H138.782C129.559 117.721 123.037 112.493 119.216 102.037C118.367 99.271 117.943 95.5839 117.943 90.9759V88.4408C119.155 68.935 122.844 59.1821 129.01 59.1821Z" fill="url(#paint1_linear_244_221)"/>
<path d="M190.007 57.9092H192.116C196.148 57.9092 198.696 60.7358 199.761 66.3892V74.4674C199.761 75.0256 200.188 75.3029 201.038 75.3029C207.078 71.5104 214.723 66.2707 223.972 59.5838L226.921 59.1821C232.319 60.1539 235.018 62.5587 235.018 66.3963V69.3794C235.018 72.3376 228.368 77.9898 215.068 86.3358C213.076 87.7438 212.081 88.5924 212.083 88.8816V89.3189C213.075 90.3406 218.174 92.5924 227.38 96.0745C230.776 98.3074 232.475 100.72 232.478 103.314V104.988C232.478 109.063 229.784 111.61 224.395 112.629C222.816 112.629 215.464 109.804 202.34 104.153L200.156 103.73C199.428 113.36 198.579 118.176 197.609 118.176C196.15 120.432 193.897 121.561 190.85 121.561C187.015 121.561 184.321 119.438 182.768 115.193C183.059 103.04 183.205 93.6994 183.205 87.1714V74.4674C183.205 71.6514 183.059 68.2546 182.768 64.2772C184.511 60.0318 186.924 57.9092 190.007 57.9092Z" fill="url(#paint2_linear_244_221)"/>
<path d="M251.097 95.6446C253.134 95.6944 254.772 97.3074 256.009 100.484C256.365 100.459 256.689 100.448 257.03 100.448C260.332 100.448 261.982 101.588 261.982 103.869V103.94L261.943 104.779C261.943 105.312 260.827 106.913 258.596 109.582C259.397 111.5 259.798 113.15 259.798 114.532C259.8 114.872 259.775 115.212 259.723 115.549C259.458 117.077 258.487 117.842 256.81 117.842C256.773 117.836 256.736 117.824 256.703 117.806C254.953 117.783 252.707 116.763 249.966 114.749C247.077 116.932 245.039 118.023 243.851 118.023H243.815C243.284 118.039 242.758 117.924 242.281 117.689C241.805 117.454 241.394 117.106 241.083 116.676C240.684 116.156 240.479 115.513 240.503 114.859C240.514 114.278 240.612 113.701 240.791 113.149C241.156 111.901 241.619 110.683 242.175 109.508C239.82 107.033 238.644 104.923 238.646 103.179V103.069C238.668 101.59 240.949 100.641 245.49 100.224C247.454 97.1664 249.31 95.6375 251.058 95.6375L251.097 95.6446ZM249.784 91.1326C246.168 90.4215 244.359 86.7095 244.359 79.9966C244.359 76.3842 244.881 71.9089 245.924 66.5709C246.337 64.5324 247.539 61.0029 249.532 55.9824C251.429 51.2038 254.393 48.8145 258.425 48.8145H258.969C263.712 50.5851 266.084 53.0467 266.084 56.1993C266.081 56.6523 266.033 57.1039 265.938 57.5469C265.862 57.8384 264.867 61.394 262.953 68.2135L261.968 73.1913C261.534 75.4195 261.219 79.2523 261.022 84.69L260.769 85.9237C260.428 89.8799 258.316 91.858 254.434 91.858C253.996 91.8566 253.559 91.8317 253.124 91.7833L249.784 91.1326Z" fill="url(#paint3_linear_244_221)"/>
<path d="M47.369 2.75195C56.0109 2.75195 61.9326 5.38543 65.1342 10.6524C65.5056 11.4801 65.6995 12.3764 65.7034 13.2835C65.7013 13.9001 65.6102 14.5133 65.433 15.1039C64.9066 17.7445 63.3224 19.3279 60.6805 19.8542C57.6567 19.8542 55.6872 19.271 54.7718 18.1048C53.8563 16.9386 52.9077 16.1967 51.9259 15.8791C50.6532 15.5233 49.3338 15.3627 48.0128 15.4026H47.0737C41.3132 15.9525 38.1436 17.3226 37.565 19.5128C39.3057 20.0936 45.0093 21.0417 54.6757 22.3573C64.1832 24.4053 68.937 28.5238 68.937 34.7128C68.937 42.7721 61.8568 48.0473 47.6962 50.5386C46.1196 50.7381 44.5328 50.8473 42.9437 50.8657C34.2875 50.8657 29.9594 48.3318 29.9594 43.2639C30.7207 39.2343 32.6179 37.2195 35.6511 37.2195H36.8998C39.6531 37.8524 41.4543 38.1688 42.3033 38.1688H44.5053C50.8397 37.4079 54.0081 36.4598 54.0105 35.3244C52.7986 34.5445 46.4607 33.4861 34.9966 32.1493C32.1294 31.751 29.3997 30.3253 26.8076 27.8719C24.7444 25.9377 23.7128 23.7842 23.7128 21.4115C23.7149 20.7725 23.7876 20.1358 23.9298 19.5128C25.6515 9.46484 33.4646 3.87788 47.369 2.75195Z" fill="#FFFF00"/>
<path d="M77.0725 4.63281H78.6484C81.6555 4.63281 83.5527 6.74126 84.3401 10.9581V16.9741C84.3401 17.3901 84.6567 17.5964 85.2934 17.5964C89.7994 14.7732 95.503 10.8621 102.404 5.86303L104.603 5.56437C108.634 6.27548 110.65 8.06629 110.65 10.9368V13.1661C110.65 15.3753 105.688 19.5922 95.7626 25.8168C94.278 26.8645 93.5358 27.4974 93.5358 27.7155V28.0426C94.2804 28.8035 98.0832 30.4864 104.944 33.0914C107.479 34.7507 108.747 36.551 108.747 38.4923V39.7439C108.747 42.7851 106.731 44.6814 102.699 45.4328C101.514 45.4328 96.0271 43.3243 86.2397 39.1074L84.6353 38.7803C84.0946 45.9649 83.4614 49.5584 82.7357 49.5608C81.6519 51.2414 79.9681 52.0828 77.6843 52.0852C74.8195 52.0852 72.8096 50.5018 71.6547 47.335C71.8705 38.266 71.9784 31.2971 71.9784 26.4283V16.9741C71.9784 14.874 71.8705 12.3401 71.6547 9.37236C72.9566 6.21503 74.7626 4.63518 77.0725 4.63281Z" fill="#FFFF00"/>
<path d="M135.537 4.63281C145.86 4.63281 152.515 8.4337 155.501 16.0355C155.935 17.358 156.146 18.7433 156.127 20.135C156.127 24.1172 152.795 28.1718 146.131 32.2986C154.967 35.1928 159.385 38.1877 159.385 41.2834C159.386 41.5393 159.359 41.7945 159.303 42.0443C158.507 45.4292 155.999 47.444 151.78 48.0888C144.485 47.0221 138.912 43.8103 135.06 38.4532C135.033 40.2746 135.115 42.0959 135.306 43.9074C135.465 45.0777 135.547 46.2571 135.551 47.4381C135.423 50.6405 133.526 52.314 129.859 52.4585C129.646 52.4763 129.425 52.487 129.208 52.487C126.114 52.487 123.896 51.0031 122.556 48.0354C121.719 42.7856 121.184 37.4922 120.952 32.1812C121.168 26.8408 121.539 22.714 122.065 19.8008L120.952 19.8541C119.17 19.8755 117.399 19.5768 115.723 18.9724C114.146 18.375 113.357 16.5463 113.357 13.4861C113.357 8.41592 118.636 5.46481 129.194 4.63281H135.537ZM135.537 24.3697C138.976 23.2319 140.696 22.1285 140.699 21.0595V21.0061C140.627 19.9181 138.989 19.2212 135.782 18.9155L135.537 24.3697Z" fill="#FFFF00"/>
<path d="M237.75 3.68372C238.436 3.68372 239.098 3.65527 239.731 3.65527C251.809 3.65527 258.501 7.63749 259.805 15.6019C260.048 17.1464 260.176 18.7069 260.186 20.2704C260.186 26.1536 257.962 30.2698 253.516 32.6188C248.773 35.1385 244.549 36.3983 240.844 36.3983C240.237 36.4006 239.63 36.3638 239.027 36.2881C239.66 43.1124 239.976 46.8054 239.976 47.3672C239.196 51.3969 237.18 53.4117 233.929 53.4117H233.303C229.338 53.4117 227.011 49.6108 226.323 42.009C225.716 36.2941 225.413 31.9622 225.413 29.0135C225.413 25.932 225.512 22.4475 225.712 18.5601L224.136 18.8873H220.959C218.749 18.8873 217.165 17.087 216.206 13.4864V12.5335C216.206 8.15779 221.277 5.41646 231.418 4.3095C233.515 3.9872 235.629 3.77831 237.75 3.68372ZM238.401 24.2099C242.475 22.8517 244.512 21.548 244.512 20.2988V20.217C244.42 18.9347 242.482 18.111 238.699 17.7459L238.401 24.2099Z" fill="#FFFF00"/>
<path d="M201.76 12.8321C201.34 12.8321 200.906 12.8321 200.455 12.8605C197.232 5.25873 194.072 1.11415 190.974 0.426739C190.429 0.320496 189.875 0.265736 189.32 0.263184C186.949 0.263184 184.957 1.50289 183.344 3.98229C181.368 7.85784 179.675 10.7023 178.264 12.5156C176.941 12.5156 173.454 12.4161 167.805 12.2169C163.997 13.2552 162.092 15.2617 162.092 18.2365V20.1352L162.743 22.3609C167.361 26.976 169.679 29.6095 169.698 30.2614L166.546 41.9947V44.5191C167.051 47.1597 168.636 48.7431 171.299 49.2694H173.832C174.268 49.2781 174.699 49.1753 175.084 48.9707L187.766 41.0454C195.371 46.9713 200.334 49.9342 202.653 49.9342H203.93C206.97 49.9342 208.868 48.0379 209.622 44.2454V42.0196C209.622 40.5974 208.463 36.2714 206.146 29.0418L206.445 28.3912C210.882 25.3689 213.1 22.6264 213.097 20.1636C213.338 19.5118 213.466 18.8243 213.478 18.1298C213.487 14.598 209.581 12.8321 201.76 12.8321ZM192.771 31.36C192.088 32.1423 190.661 31.9645 187.808 31.616C185.347 31.3138 184.116 31.1609 183.707 30.4889C182.284 28.1565 187.808 21.7849 187.808 21.7849C189.235 22.6694 190.449 23.8566 191.366 25.2623C191.515 25.4792 194.204 29.7209 192.771 31.36Z" fill="#FFFF00"/>
</g>
<defs>
<filter id="filter0_d_244_221" x="0.233595" y="0.263184" width="289.329" height="171.669" filterUnits="userSpaceOnUse" color-interpolation-filters="sRGB">
<feFlood flood-opacity="0" result="BackgroundImageFix"/>
<feColorMatrix in="SourceAlpha" type="matrix" values="0 0 0 0 0 0 0 0 0 0 0 0 0 0 0 0 0 0 127 0" result="hardAlpha"/>
<feOffset dy="23.4792"/>
<feGaussianBlur stdDeviation="11.7396"/>
<feComposite in2="hardAlpha" operator="out"/>
<feColorMatrix type="matrix" values="0 0 0 0 0 0 0 0 0 0 0 0 0 0 0 0 0 0 0.25 0"/>
<feBlend mode="normal" in2="BackgroundImageFix" result="effect1_dropShadow_244_221"/>
<feBlend mode="normal" in="SourceGraphic" in2="effect1_dropShadow_244_221" result="shape"/>
</filter>
<linearGradient id="paint0_linear_244_221" x1="157.02" y1="63.0934" x2="157.02" y2="128.917" gradientUnits="userSpaceOnUse">
<stop stop-color="#FFEE25"/>
<stop offset="0.02" stop-color="#F8EF2C"/>
<stop offset="0.18" stop-color="#D3F456"/>
<stop offset="0.34" stop-color="#B4F878"/>
<stop offset="0.49" stop-color="#9CFB93"/>
<stop offset="0.66" stop-color="#8BFDA6"/>
<stop offset="0.82" stop-color="#80FFB1"/>
<stop offset="1" stop-color="#7DFFB5"/>
</linearGradient>
<linearGradient id="paint1_linear_244_221" x1="157.02" y1="63.0932" x2="157.02" y2="128.917" gradientUnits="userSpaceOnUse">
<stop stop-color="#FFEE25"/>
<stop offset="0.02" stop-color="#F8EF2C"/>
<stop offset="0.18" stop-color="#D3F456"/>
<stop offset="0.34" stop-color="#B4F878"/>
<stop offset="0.49" stop-color="#9CFB93"/>
<stop offset="0.66" stop-color="#8BFDA6"/>
<stop offset="0.82" stop-color="#80FFB1"/>
<stop offset="1" stop-color="#7DFFB5"/>
</linearGradient>
<linearGradient id="paint2_linear_244_221" x1="157.02" y1="63.0932" x2="157.02" y2="128.917" gradientUnits="userSpaceOnUse">
<stop stop-color="#FFEE25"/>
<stop offset="0.02" stop-color="#F8EF2C"/>
<stop offset="0.18" stop-color="#D3F456"/>
<stop offset="0.34" stop-color="#B4F878"/>
<stop offset="0.49" stop-color="#9CFB93"/>
<stop offset="0.66" stop-color="#8BFDA6"/>
<stop offset="0.82" stop-color="#80FFB1"/>
<stop offset="1" stop-color="#7DFFB5"/>
</linearGradient>
<linearGradient id="paint3_linear_244_221" x1="157.02" y1="63.0936" x2="157.02" y2="128.917" gradientUnits="userSpaceOnUse">
<stop stop-color="#FFEE25"/>
<stop offset="0.02" stop-color="#F8EF2C"/>
<stop offset="0.18" stop-color="#D3F456"/>
<stop offset="0.34" stop-color="#B4F878"/>
<stop offset="0.49" stop-color="#9CFB93"/>
<stop offset="0.66" stop-color="#8BFDA6"/>
<stop offset="0.82" stop-color="#80FFB1"/>
<stop offset="1" stop-color="#7DFFB5"/>
</linearGradient>
</defs>
</svg>
