<svg width="5925" height="260" viewBox="0 0 5925 260" fill="none" xmlns="http://www.w3.org/2000/svg">
<path d="M0 57.7778L41.1633 81.8519C82.3267 105.926 164.413 154.074 247.22 163.704C329.187 173.333 411.633 144.444 493.24 110.741C576.047 77.037 658.853 38.5185 740.46 43.3333C822.907 48.1482 904.873 96.2963 987.68 115.556C1069.77 134.815 1152.09 125.185 1234.9 134.815C1316.63 144.444 1399.31 173.333 1480.92 173.333C1563.61 173.333 1645.33 144.444 1728.14 130C1810.47 115.556 1892.55 115.556 1975.36 130C2057.33 144.444 2139.77 173.333 2221.38 149.259C2304.19 125.185 2386.99 48.1482 2468.6 48.1482C2551.05 48.1482 2633.01 125.185 2715.82 134.815C2797.91 144.444 2880.23 86.6667 2963.04 62.5926C3044.77 38.5185 3127.45 48.1482 3209.06 67.4074C3291.75 86.6667 3373.47 115.556 3456.28 139.63C3538.61 163.704 3620.69 182.963 3703.5 173.333C3785.47 163.704 3867.91 125.185 3949.52 110.741C4032.33 96.2963 4115.13 105.926 4196.74 115.556C4279.19 125.185 4361.15 134.815 4443.96 134.815C4526.05 134.815 4608.37 125.185 4691.18 110.741C4772.91 96.2963 4855.59 77.037 4937.2 52.963C5019.89 28.8889 5101.61 0 5184.42 14.4444C5266.75 28.8889 5348.83 86.6667 5431.64 115.556C5513.61 144.444 5596.05 144.444 5677.66 120.37C5760.47 96.2963 5843.27 48.1482 5884.08 24.0741L5925 0V260H5883.96C5842.79 260 5760.47 260 5677.66 260C5595.93 260 5513.25 260 5431.64 260C5348.95 260 5267.23 260 5184.42 260C5102.09 260 5020.01 260 4937.2 260C4855.23 260 4772.79 260 4691.18 260C4608.37 260 4525.57 260 4443.96 260C4361.51 260 4279.55 260 4196.74 260C4114.65 260 4032.33 260 3949.52 260C3867.79 260 3785.11 260 3703.5 260C3620.81 260 3539.09 260 3456.28 260C3373.95 260 3291.87 260 3209.06 260C3127.09 260 3044.65 260 2963.04 260C2880.23 260 2797.43 260 2715.82 260C2633.37 260 2551.41 260 2468.6 260C2386.51 260 2304.19 260 2221.38 260C2139.65 260 2056.97 260 1975.36 260C1892.67 260 1810.95 260 1728.14 260C1645.81 260 1563.73 260 1480.92 260C1398.95 260 1316.51 260 1234.9 260C1152.09 260 1069.29 260 987.68 260C905.233 260 823.267 260 740.46 260C658.373 260 576.047 260 493.24 260C411.513 260 328.827 260 247.22 260C164.533 260 82.8067 260 40.8033 260H0V57.7778Z" fill="url(#paint0_linear_448_9)"/>
<defs>
<linearGradient id="paint0_linear_448_9" x1="0" y1="260" x2="0" y2="0" gradientUnits="userSpaceOnUse">
<stop stop-color="#7165E3"/>
<stop offset="1" stop-color="#5934F4" stop-opacity="0.1"/>
</linearGradient>
</defs>
</svg>
